<svg xmlns="http://www.w3.org/2000/svg" width="512.000000pt" height="512.000000pt" viewBox="0 0 512.000000 512.000000" preserveAspectRatio="xMidYMid meet"><g transform="translate(0.000000,512.000000) scale(0.100000,-0.100000)" fill="#000000" stroke="none"><path d="M1089 4797 c-57 -21 -97 -54 -126 -105 l-28 -47 -3 -227 -3 -226 -222 -4 c-216 -3 -224 -4 -272 -29 -62 -31 -101 -86 -117 -161 -19 -92 16 -173 100 -233 l44 -30 234 -3 234 -3 0 -79 0 -79 -382 -3 c-370 -3 -384 -4 -423 -25 -51 -27 -79 -57 -104 -113 -20 -44 -21 -60 -21 -1012 0 -955 0 -968 20 -988 12 -12 33 -20 55 -20 22 0 43 8 55 20 20 20 20 33 20 979 0 929 1 960 19 982 l19 24 660 0 c635 0 661 -1 681 -19 21 -19 21 -26 21 -361 0 -387 4 -415 67 -480 67 -69 67 -69 469 -75 277 -4 365 -8 377 -18 13 -11 16 -61 19 -375 3 -351 4 -363 25 -403 30 -56 94 -109 148 -123 31 -8 379 -11 1159 -11 l1115 0 20 -26 c21 -26 21 -36 21 -521 l0 -494 -25 -24 -24 -25 -491 0 -491 0 -24 -25 c-32 -31 -32 -69 0 -100 l24 -25 492 0 c358 0 503 3 533 12 57 17 128 90 144 148 10 34 12 172 10 561 l-3 516 -30 48 c-22 36 -45 57 -84 77 l-53 28 -379 0 -379 0 0 79 0 79 218 4 c215 3 218 3 275 31 47 23 63 38 87 80 55 97 49 189 -18 268 -63 73 -85 79 -339 79 l-223 0 0 240 0 240 213 0 c117 0 229 5 250 11 89 24 151 115 151 219 0 72 -15 109 -63 157 -63 63 -84 68 -328 71 l-223 4 0 43 c0 57 -16 91 -49 105 -33 13 -75 0 -90 -29 -8 -13 -11 -284 -11 -850 l0 -831 -80 0 -80 0 0 1455 0 1456 25 24 c33 33 70 32 106 -4 l29 -29 0 -477 c0 -317 4 -483 11 -496 15 -29 57 -42 90 -29 31 13 49 48 49 95 l0 35 218 0 c207 0 219 1 267 24 64 29 100 72 121 143 31 107 -14 213 -111 263 -48 24 -56 25 -271 28 l-222 3 -4 222 c-3 216 -4 224 -29 272 -31 62 -86 101 -161 117 -92 19 -173 -16 -233 -100 l-30 -44 -3 -234 -3 -234 -235 0 -234 0 0 193 c0 268 -21 337 -121 391 -93 51 -184 43 -260 -22 -73 -63 -79 -85 -79 -339 l0 -223 -240 0 -240 0 0 223 c0 254 -6 276 -79 339 -117 100 -287 63 -357 -79 -17 -33 -19 -66 -22 -260 l-4 -223 -234 0 -234 0 0 218 c0 197 -2 221 -21 262 -25 56 -53 86 -101 111 -49 25 -134 33 -179 16z m126 -162 c25 -24 25 -24 25 -235 l0 -210 -80 0 -80 0 0 200 c0 125 4 208 11 224 22 48 86 60 124 21z m929 4 l26 -20 0 -995 0 -995 -77 3 -78 3 0 988 0 989 28 24 c34 29 66 31 101 3z m933 -3 l28 -24 3 -211 3 -211 -80 0 -81 0 0 214 0 215 26 20 c35 28 67 26 101 -3z m-1217 -676 l0 -80 -675 0 -676 0 -24 25 c-37 37 -28 101 19 123 14 7 251 11 689 11 l667 1 0 -80z m1870 0 l0 -80 -705 0 -705 0 0 73 c0 41 3 77 7 80 3 4 321 7 705 7 l698 0 0 -80z m902 50 c25 -26 29 -36 24 -63 -12 -64 -25 -67 -257 -67 l-209 0 0 80 0 80 206 0 206 0 30 -30z m-3392 -360 l0 -80 -80 0 -80 0 0 80 0 80 80 0 80 0 0 -80z m620 -155 l0 -235 -80 0 -80 0 0 65 c0 147 -84 233 -237 243 l-73 5 0 78 0 79 235 0 235 0 0 -235z m938 -2 l2 -233 -240 0 -240 0 0 228 c0 126 3 232 7 236 4 3 110 5 237 4 l231 -3 3 -232z m310 0 l2 -233 -80 0 -80 0 0 235 0 236 78 -3 77 -3 3 -232z m622 2 l0 -235 -235 0 -235 0 0 235 0 235 235 0 235 0 0 -235z m-1870 -465 l0 -80 -80 0 -80 0 0 73 c0 41 3 77 7 80 3 4 39 7 80 7 l73 0 0 -80z m1868 -2 l3 -78 -706 0 -705 0 0 73 c0 41 3 77 7 80 3 4 320 6 702 5 l696 -3 3 -77z m908 49 c31 -36 31 -71 -1 -102 -24 -25 -24 -25 -235 -25 l-210 0 0 81 0 80 211 -3 211 -3 24 -28z m-2776 -363 l0 -86 -57 4 c-74 6 -103 36 -103 107 0 26 3 51 7 54 3 4 39 7 80 7 l73 0 0 -86z m935 -154 l0 -235 -76 -3 -76 -3 -8 73 c-15 161 -79 227 -230 237 l-80 6 -3 69 c-2 38 -1 75 2 83 5 11 49 13 238 11 l233 -3 0 -235z m310 0 l0 -235 -77 -3 -78 -3 0 241 0 241 78 -3 77 -3 0 -235z m620 0 l0 -235 -232 -3 -233 -2 0 240 0 240 233 -2 232 -3 0 -235z m3 -467 l-3 -78 -542 -3 -543 -2 0 80 0 80 545 0 546 0 -3 -77z m911 51 c28 -35 26 -67 -3 -101 l-24 -28 -211 -3 -211 -3 0 80 0 81 214 0 215 0 20 -26z m-1841 -361 l-3 -78 -51 -3 c-39 -2 -56 2 -77 18 -24 19 -27 28 -27 81 l0 59 80 0 81 0 -3 -77z m310 0 l-3 -78 -77 -3 -78 -3 0 81 0 80 80 0 81 0 -3 -77z m620 0 l-3 -78 -232 -3 -233 -2 0 80 0 80 235 0 236 0 -3 -77z"></path><path d="M669 3249 c-25 -9 -49 -45 -49 -73 0 -7 9 -25 21 -40 41 -52 129 -23 129 43 0 54 -50 88 -101 70z"></path><path d="M1120 3251 c-151 -30 -230 -192 -160 -331 82 -161 319 -161 402 -1 69 131 4 284 -138 327 -51 15 -52 15 -104 5z m71 -151 c21 0 49 -42 49 -72 0 -71 -84 -104 -135 -53 -14 13 -25 35 -25 47 0 45 53 94 88 82 8 -2 18 -4 23 -4z"></path><path d="M444 2301 c-120 -54 -168 -210 -100 -325 45 -77 113 -110 215 -104 91 5 144 39 184 117 59 118 17 250 -101 310 -53 27 -141 28 -198 2z m155 -157 c28 -36 27 -75 -4 -104 -35 -33 -81 -31 -112 4 -28 34 -29 65 -2 100 16 20 29 26 59 26 30 0 43 -6 59 -26z"></path><path d="M951 2294 c-27 -34 -26 -57 2 -90 46 -53 127 -23 127 47 0 66 -88 95 -129 43z"></path><path d="M1885 2300 c-43 -47 -7 -124 57 -122 61 2 91 79 48 122 -26 26 -81 26 -105 0z"></path><path d="M2197 1992 c-24 -26 -22 -85 3 -107 46 -42 120 -10 120 52 0 20 -8 41 -20 53 -26 26 -81 26 -103 2z"></path><path d="M645 1675 c-14 -13 -25 -36 -25 -50 0 -33 42 -75 75 -75 33 0 75 42 75 75 0 14 -11 37 -25 50 -13 14 -36 25 -50 25 -14 0 -37 -11 -50 -25z"></path><path d="M1395 1379 c-42 -12 -102 -64 -124 -107 -61 -121 -11 -269 108 -320 53 -22 147 -20 196 5 81 42 125 114 125 202 0 160 -147 267 -305 220z m132 -161 c46 -43 21 -122 -44 -134 -27 -5 -37 -1 -64 25 -26 27 -30 37 -25 64 12 64 86 89 133 45z"></path><path d="M1889 1372 c-33 -27 -30 -78 5 -109 33 -28 56 -29 90 -2 19 15 26 30 26 55 0 65 -69 97 -121 56z"></path><path d="M4159 1362 c-66 -34 -107 -94 -116 -170 -24 -202 191 -330 360 -214 117 80 125 264 15 357 -75 64 -170 74 -259 27z m158 -137 c26 -18 38 -67 23 -94 -28 -53 -88 -63 -130 -21 -64 64 33 167 107 115z"></path><path d="M4682 1367 c-46 -49 -14 -121 53 -121 27 0 43 6 56 23 59 73 -45 166 -109 98z"></path><path d="M43 1220 c-12 -5 -26 -18 -32 -29 -16 -29 -15 -671 1 -725 16 -54 90 -128 144 -144 32 -9 437 -12 1771 -12 l1730 0 27 21 c34 27 36 79 4 109 -22 20 -25 20 -1755 20 l-1734 0 -24 25 -25 24 0 334 c0 304 -2 337 -17 355 -21 25 -60 35 -90 22z"></path><path d="M2525 1068 c-28 -16 -35 -28 -35 -65 0 -42 30 -73 70 -73 40 0 70 31 70 73 0 38 -7 50 -37 66 -27 14 -42 14 -68 -1z"></path><path d="M2919 1052 c-142 -74 -162 -269 -39 -375 104 -89 269 -65 337 50 73 124 32 272 -90 329 -72 33 -139 32 -208 -4z m151 -132 c25 -13 41 -65 30 -94 -11 -29 -47 -56 -76 -56 -38 0 -74 37 -74 78 0 64 63 102 120 72z"></path><path d="M3750 1060 c-30 -30 -27 -83 6 -109 30 -24 43 -26 78 -10 33 15 50 57 37 92 -19 48 -85 63 -121 27z"></path><path d="M1577 753 c-46 -51 -14 -126 53 -126 62 0 94 79 50 123 -25 25 -81 26 -103 3z"></path><path d="M4681 749 c-23 -25 -27 -59 -10 -90 28 -53 121 -39 134 21 15 71 -76 121 -124 69z"></path></g></svg>