<svg xmlns="http://www.w3.org/2000/svg" width="512.000000pt" height="512.000000pt" viewBox="0 0 512.000000 512.000000" preserveAspectRatio="xMidYMid meet"><g transform="translate(0.000000,512.000000) scale(0.100000,-0.100000)" fill="#000000" stroke="none"><path d="M1065 5015 l-25 -24 0 -1518 0 -1518 -480 -480 -480 -480 0 -433 0 -433 25 -24 24 -25 2431 0 2431 0 24 25 25 24 0 433 0 433 -480 480 -480 480 0 1518 0 1518 -25 24 -24 25 -271 0 -271 0 -24 -25 -25 -24 0 -376 0 -375 -120 0 -120 0 0 296 c0 204 -4 310 -12 338 -26 86 -136 166 -228 166 -92 0 -202 -80 -228 -166 -8 -28 -12 -134 -12 -338 l0 -296 -160 0 -160 0 0 296 c0 204 -4 310 -12 338 -26 86 -136 166 -228 166 -92 0 -202 -80 -228 -166 -8 -28 -12 -134 -12 -338 l0 -296 -120 0 -120 0 0 375 0 376 -25 24 -24 25 -271 0 -271 0 -24 -25z m455 -2455 l0 -2320 -160 0 -160 0 0 2320 0 2320 160 0 160 0 0 -2320z m695 2295 l25 -24 0 -351 0 -351 25 -24 24 -25 271 0 271 0 24 25 25 24 0 351 0 351 25 24 c15 16 36 25 55 25 19 0 40 -9 55 -25 l25 -24 0 -351 0 -351 25 -24 c24 -25 27 -25 200 -25 l175 0 0 -80 0 -80 -175 0 c-173 0 -176 0 -200 -25 l-25 -24 0 -271 0 -271 25 -24 c24 -25 27 -25 200 -25 l175 0 0 -80 0 -80 -175 0 c-238 0 -225 13 -225 -225 l0 -175 -57 0 c-32 0 -68 -3 -80 -6 l-23 -6 0 181 c0 180 0 182 -25 206 l-24 25 -271 0 -271 0 -24 -25 -25 -24 0 -280 0 -280 -37 -10 c-21 -6 -57 -13 -80 -17 l-43 -7 0 297 0 297 -25 24 c-24 25 -27 25 -200 25 l-175 0 0 80 0 80 175 0 c173 0 176 0 200 25 l25 24 0 271 0 271 -25 24 c-24 25 -27 25 -200 25 l-175 0 0 80 0 80 175 0 c173 0 176 0 200 25 l25 24 0 351 0 351 25 24 c15 16 36 25 55 25 19 0 40 -9 55 -25z m1705 -2295 l0 -2320 -160 0 -160 0 0 2320 0 2320 160 0 160 0 0 -2320z m-2000 1040 l0 -160 -120 0 -120 0 0 160 0 160 120 0 120 0 0 -160z m1520 0 l0 -160 -120 0 -120 0 0 160 0 160 120 0 120 0 0 -160z m-1520 -874 l0 -235 -57 20 c-32 11 -85 34 -118 53 l-60 33 -3 181 -2 182 120 0 120 0 0 -234z m800 99 l0 -134 -42 -11 c-77 -20 -142 -42 -207 -71 -35 -16 -65 -29 -67 -29 -2 0 -4 86 -4 190 l0 190 160 0 160 0 0 -135z m720 -15 c0 -121 -3 -148 -13 -144 -8 3 -61 13 -118 23 l-104 18 -3 126 -3 127 121 0 120 0 0 -150z m-180 -275 c52 -9 113 -21 137 -27 l43 -10 0 -1129 0 -1129 -880 0 -880 0 0 1085 c0 597 2 1085 4 1085 2 0 29 -11 61 -25 138 -61 292 -79 443 -50 100 19 160 40 284 98 145 68 239 96 413 121 55 8 279 -3 375 -19z m-2220 -1555 l0 -740 -400 0 -400 0 0 342 0 343 397 397 c219 219 399 398 400 398 2 0 3 -333 3 -740z m3840 -397 l0 -343 -400 0 -400 0 0 742 0 743 400 -400 400 -400 0 -342z"></path><path d="M2265 3895 l-25 -24 0 -271 0 -271 25 -24 24 -25 271 0 271 0 24 25 25 24 0 271 0 271 -25 24 -24 25 -271 0 -271 0 -24 -25z m455 -295 l0 -160 -160 0 -160 0 0 160 0 160 160 0 160 0 0 -160z"></path><path d="M2960 2307 c-49 -16 -133 -102 -148 -153 -28 -94 -8 -169 63 -239 70 -71 145 -91 239 -63 55 16 138 99 154 154 28 94 8 169 -63 239 -70 71 -152 91 -245 62z m135 -172 c50 -49 15 -135 -55 -135 -41 0 -80 39 -80 80 0 41 39 80 80 80 19 0 40 -9 55 -25z"></path><path d="M2000 2147 c-49 -16 -133 -102 -148 -153 -28 -94 -8 -169 63 -239 101 -102 229 -102 330 0 102 101 102 229 0 330 -70 71 -152 91 -245 62z m135 -172 c50 -49 15 -135 -55 -135 -19 0 -40 9 -55 25 -16 15 -25 36 -25 55 0 19 9 40 25 55 15 16 36 25 55 25 19 0 40 -9 55 -25z"></path><path d="M2560 1587 c-49 -16 -133 -102 -148 -153 -28 -94 -8 -169 63 -239 70 -71 145 -91 239 -63 55 16 138 99 154 154 28 94 8 169 -63 239 -70 71 -152 91 -245 62z m135 -172 c50 -49 15 -135 -55 -135 -41 0 -80 39 -80 80 0 41 39 80 80 80 19 0 40 -9 55 -25z"></path><path d="M2000 1187 c-49 -16 -133 -102 -148 -153 -28 -94 -8 -169 63 -239 101 -102 229 -102 330 0 98 97 101 222 8 325 -65 72 -158 97 -253 67z m135 -172 c50 -49 15 -135 -55 -135 -19 0 -40 9 -55 25 -16 15 -25 36 -25 55 0 19 9 40 25 55 15 16 36 25 55 25 19 0 40 -9 55 -25z"></path><path d="M2960 867 c-49 -16 -133 -102 -148 -153 -28 -94 -8 -169 63 -239 51 -52 102 -75 165 -75 63 0 114 23 165 75 98 97 101 222 8 325 -65 72 -158 97 -253 67z m135 -172 c50 -49 15 -135 -55 -135 -41 0 -80 39 -80 80 0 41 39 80 80 80 19 0 40 -9 55 -25z"></path></g></svg>