<svg xmlns="http://www.w3.org/2000/svg" width="512.000000pt" height="512.000000pt" viewBox="0 0 512.000000 512.000000" preserveAspectRatio="xMidYMid meet"><g transform="translate(0.000000,512.000000) scale(0.100000,-0.100000)" fill="#000000" stroke="none"><path d="M1839 5026 c-100 -36 -150 -108 -157 -227 l-5 -79 -55 0 c-85 0 -131 -18 -187 -75 -69 -68 -75 -94 -75 -325 0 -231 6 -257 75 -325 56 -57 102 -75 187 -75 l55 0 5 -80 c4 -65 10 -87 34 -127 45 -72 106 -105 203 -111 l79 -4 4 -77 c3 -42 7 -81 9 -87 2 -5 -282 -726 -631 -1602 l-635 -1592 -308 0 -308 0 -24 -25 c-16 -15 -25 -36 -25 -55 0 -19 9 -40 25 -55 l24 -25 2191 0 2191 0 24 25 c33 32 33 78 0 110 -21 22 -33 25 -93 25 l-68 0 -13 38 c-49 136 -96 247 -112 263 -26 26 -83 25 -109 -1 -31 -31 -25 -76 24 -189 l45 -101 -73 0 -73 0 -309 768 c-169 422 -444 1102 -610 1512 l-302 745 51 6 c29 4 59 10 68 13 14 6 82 -157 423 -1012 223 -560 414 -1026 424 -1036 48 -43 138 3 130 67 -3 18 -190 498 -418 1067 -227 569 -412 1040 -411 1045 1 6 4 47 7 91 l6 82 79 4 c97 6 158 39 203 111 24 40 30 62 34 127 l5 80 55 0 c30 0 73 5 96 12 55 16 138 99 154 154 16 55 16 412 0 466 -6 22 -31 62 -55 88 -51 56 -108 80 -193 80 l-57 0 -5 80 c-4 65 -10 87 -34 127 -38 62 -104 102 -177 110 -50 5 -58 3 -81 -20 -51 -51 -17 -137 54 -137 19 0 40 -9 55 -25 l25 -24 0 -511 0 -511 -25 -24 -24 -25 -671 0 -671 0 -24 25 -25 24 0 511 0 511 25 24 24 25 511 0 511 0 24 25 c16 15 25 36 25 55 0 19 -9 40 -25 55 l-24 25 -518 0 c-397 -1 -526 -4 -554 -14z m-159 -706 l0 -240 -55 0 c-46 0 -60 4 -80 25 -25 24 -25 26 -25 215 0 189 0 191 25 215 20 21 34 25 80 25 l55 0 0 -240z m1895 215 c25 -24 25 -26 25 -215 0 -189 0 -191 -25 -215 -20 -21 -34 -25 -80 -25 l-55 0 0 240 0 240 55 0 c46 0 60 -4 80 -25z m-615 -990 c0 -46 -4 -60 -25 -80 l-24 -25 -351 0 -351 0 -24 25 c-21 20 -25 34 -25 80 l0 55 400 0 400 0 0 -55z m-729 -264 l47 -6 -140 -345 c-78 -190 -141 -358 -141 -373 0 -34 28 -64 68 -73 55 -11 73 16 165 246 l85 212 3 -548 c1 -301 1 -549 -1 -551 -2 -2 -101 -2 -220 -1 l-215 3 74 189 c41 105 74 199 74 211 0 27 -33 63 -67 71 -66 17 -47 58 -488 -1049 l-410 -1027 -73 0 -72 0 13 32 c8 18 283 707 611 1531 561 1405 599 1497 619 1491 12 -4 42 -9 68 -13z m409 -1521 l0 -1520 -80 0 -80 0 0 1520 0 1520 80 0 80 0 0 -1520z m365 670 c108 -272 205 -516 216 -542 l19 -48 -220 0 -220 0 0 547 c0 300 2 544 4 542 2 -2 93 -227 201 -499z m-685 -1470 l0 -720 -540 0 -540 0 13 33 c7 17 137 341 288 719 l274 688 253 0 252 0 0 -720z m1259 32 c151 -378 281 -702 288 -719 l13 -33 -540 0 -540 0 0 720 0 720 253 0 252 0 274 -688z"></path><path d="M2452 4705 c-97 -27 -187 -97 -240 -186 -28 -47 -52 -141 -52 -205 0 -65 33 -176 63 -208 39 -44 110 -36 131 16 12 28 11 39 -11 97 -47 125 -12 242 91 306 44 27 58 30 126 30 68 0 82 -3 126 -30 30 -19 60 -49 79 -79 27 -44 30 -58 30 -126 0 -68 -3 -82 -30 -126 -40 -64 -101 -101 -184 -112 -48 -7 -69 -15 -83 -32 -26 -32 -23 -76 8 -107 24 -24 31 -25 88 -20 103 10 173 42 242 111 70 71 101 130 117 221 14 82 0 175 -39 252 -38 73 -127 155 -201 183 -75 28 -190 35 -261 15z"></path><path d="M3970 1027 c-13 -7 -31 -24 -39 -38 -14 -25 -12 -34 24 -133 22 -59 48 -116 58 -127 21 -23 74 -25 104 -4 39 28 38 64 -7 179 -34 86 -47 109 -70 121 -35 18 -38 18 -70 2z"></path><path d="M4745 215 c-16 -15 -25 -36 -25 -55 0 -19 9 -40 25 -55 23 -24 31 -25 135 -25 104 0 112 1 135 25 16 15 25 36 25 55 0 19 -9 40 -25 55 -23 24 -31 25 -135 25 -104 0 -112 -1 -135 -25z"></path></g></svg>