<?xml version="1.0" encoding="UTF-8"?> <svg xmlns="http://www.w3.org/2000/svg" width="2944" height="1406" viewBox="0 0 2944 1406" fill="none"><path d="M1509.53 621.203C1488.34 621.203 1472.12 614.826 1460.88 602.074C1449.73 589.22 1444.16 570.693 1444.16 546.493V420.57C1444.16 397.876 1449.68 380.654 1460.73 368.905C1471.87 357.157 1488.14 351.282 1509.53 351.282C1530.92 351.282 1547.14 357.157 1558.18 368.905C1569.33 380.654 1574.9 397.876 1574.9 420.57V546.493C1574.9 570.693 1569.28 589.22 1558.03 602.074C1546.88 614.826 1530.72 621.203 1509.53 621.203ZM1509.98 572.4C1518.01 572.4 1522.03 564.618 1522.03 549.053V419.666C1522.03 406.612 1518.12 400.085 1510.28 400.085C1501.45 400.085 1497.03 406.763 1497.03 420.118V549.355C1497.03 557.589 1498.03 563.513 1500.04 567.128C1502.05 570.643 1505.36 572.4 1509.98 572.4ZM1714.01 621.203C1676.16 621.203 1657.23 594.09 1657.23 539.865V425.541C1657.23 376.035 1678.92 351.282 1722.3 351.282C1740.17 351.282 1753.88 354.897 1763.42 362.127C1772.96 369.257 1779.53 379.7 1783.15 393.457C1786.76 407.214 1788.57 423.984 1788.57 443.766H1736.76V420.269C1736.76 414.545 1735.95 409.775 1734.35 405.959C1732.84 402.043 1729.63 400.085 1724.71 400.085C1718.58 400.085 1714.51 402.143 1712.51 406.261C1710.6 410.378 1709.64 414.896 1709.64 419.817V548.3C1709.64 555.43 1710.55 561.254 1712.36 565.773C1714.26 570.191 1717.93 572.4 1723.35 572.4C1728.97 572.4 1732.69 570.191 1734.5 565.773C1736.41 561.254 1737.36 555.329 1737.36 547.999V510.192H1723.2V464.402H1787.97V618.793H1766.73L1757.69 596.5C1748.46 612.969 1733.9 621.203 1714.01 621.203ZM1804.43 618.793V353.692H1885.77C1899.32 353.692 1909.57 356.805 1916.5 363.031C1923.42 369.156 1928.04 377.792 1930.35 388.939C1932.76 399.984 1933.97 412.988 1933.97 427.951C1933.97 442.411 1932.11 453.959 1928.39 462.594C1924.78 471.23 1917.9 477.205 1907.76 480.519C1916.09 482.226 1921.92 486.393 1925.23 493.021C1928.65 499.548 1930.35 508.033 1930.35 518.476V618.793H1878.09V515.012C1878.09 507.28 1876.48 502.51 1873.27 500.703C1870.15 498.795 1865.08 497.841 1858.05 497.841V618.793H1804.43ZM1858.35 451.9H1871.16C1878.49 451.9 1882.15 443.917 1882.15 427.951C1882.15 417.608 1881.35 410.829 1879.74 407.616C1878.14 404.403 1875.12 402.796 1870.71 402.796H1858.35V451.9ZM2010.08 621.203C1988.89 621.203 1972.67 614.826 1961.42 602.074C1950.28 589.22 1944.7 570.693 1944.7 546.493V420.57C1944.7 397.876 1950.23 380.654 1961.27 368.905C1972.42 357.157 1988.69 351.282 2010.08 351.282C2031.46 351.282 2047.68 357.157 2058.73 368.905C2069.87 380.654 2075.45 397.876 2075.45 420.57V546.493C2075.45 570.693 2069.82 589.22 2058.58 602.074C2047.43 614.826 2031.26 621.203 2010.08 621.203ZM2010.53 572.4C2018.56 572.4 2022.58 564.618 2022.58 549.053V419.666C2022.58 406.612 2018.66 400.085 2010.83 400.085C2001.99 400.085 1997.57 406.763 1997.57 420.118V549.355C1997.57 557.589 1998.58 563.513 2000.59 567.128C2002.59 570.643 2005.91 572.4 2010.53 572.4ZM2155.17 621.203C2130.97 621.203 2113.5 615.178 2102.75 603.128C2092.11 591.078 2086.79 571.898 2086.79 545.589V519.681H2139.2V552.819C2139.2 558.944 2140.11 563.764 2141.92 567.279C2143.82 570.693 2147.09 572.4 2151.71 572.4C2156.53 572.4 2159.84 570.995 2161.65 568.183C2163.56 565.371 2164.51 560.752 2164.51 554.325C2164.51 546.192 2163.71 539.413 2162.1 533.991C2160.49 528.468 2157.68 523.246 2153.66 518.326C2149.75 513.305 2144.28 507.481 2137.25 500.853L2113.45 478.259C2095.67 461.49 2086.79 442.31 2086.79 420.721C2086.79 398.127 2092.01 380.905 2102.45 369.056C2113 357.207 2128.21 351.282 2148.09 351.282C2172.39 351.282 2189.61 357.759 2199.76 370.713C2210 383.667 2215.12 403.348 2215.12 429.758H2161.2V411.532C2161.2 407.917 2160.14 405.106 2158.03 403.097C2156.02 401.089 2153.26 400.085 2149.75 400.085C2145.53 400.085 2142.42 401.29 2140.41 403.7C2138.5 406.009 2137.55 409.022 2137.55 412.737C2137.55 416.453 2138.55 420.47 2140.56 424.787C2142.57 429.105 2146.53 434.076 2152.46 439.699L2183.04 469.071C2189.16 474.895 2194.78 481.071 2199.91 487.598C2205.03 494.025 2209.14 501.556 2212.26 510.192C2215.37 518.727 2216.93 529.171 2216.93 541.522C2216.93 566.426 2212.31 585.957 2203.07 600.115C2193.93 614.174 2177.96 621.203 2155.17 621.203ZM2293.03 621.203C2268.83 621.203 2251.36 615.178 2240.62 603.128C2229.97 591.078 2224.65 571.898 2224.65 545.589V519.681H2277.07V552.819C2277.07 558.944 2277.97 563.764 2279.78 567.279C2281.69 570.693 2284.95 572.4 2289.57 572.4C2294.39 572.4 2297.7 570.995 2299.51 568.183C2301.42 565.371 2302.37 560.752 2302.37 554.325C2302.37 546.192 2301.57 539.413 2299.96 533.991C2298.36 528.468 2295.55 523.246 2291.53 518.326C2287.61 513.305 2282.14 507.481 2275.11 500.853L2251.31 478.259C2233.54 461.49 2224.65 442.31 2224.65 420.721C2224.65 398.127 2229.87 380.905 2240.32 369.056C2250.86 357.207 2266.07 351.282 2285.96 351.282C2310.26 351.282 2327.48 357.759 2337.62 370.713C2347.86 383.667 2352.98 403.348 2352.98 429.758H2299.06V411.532C2299.06 407.917 2298.01 405.106 2295.9 403.097C2293.89 401.089 2291.13 400.085 2287.61 400.085C2283.39 400.085 2280.28 401.29 2278.27 403.7C2276.37 406.009 2275.41 409.022 2275.41 412.737C2275.41 416.453 2276.42 420.47 2278.42 424.787C2280.43 429.105 2284.4 434.076 2290.32 439.699L2320.9 469.071C2327.03 474.895 2332.65 481.071 2337.77 487.598C2342.89 494.025 2347.01 501.556 2350.12 510.192C2353.23 518.727 2354.79 529.171 2354.79 541.522C2354.79 566.426 2350.17 585.957 2340.93 600.115C2331.8 614.174 2315.83 621.203 2293.03 621.203ZM2431.2 621.203C2410.01 621.203 2393.8 614.826 2382.55 602.074C2371.4 589.22 2365.83 570.693 2365.83 546.493V420.57C2365.83 397.876 2371.35 380.654 2382.4 368.905C2393.54 357.157 2409.81 351.282 2431.2 351.282C2452.59 351.282 2468.81 357.157 2479.85 368.905C2491 380.654 2496.57 397.876 2496.57 420.57V546.493C2496.57 570.693 2490.95 589.22 2479.7 602.074C2468.56 614.826 2452.39 621.203 2431.2 621.203ZM2431.65 572.4C2439.69 572.4 2443.7 564.618 2443.7 549.053V419.666C2443.7 406.612 2439.79 400.085 2431.95 400.085C2423.12 400.085 2418.7 406.763 2418.7 420.118V549.355C2418.7 557.589 2419.7 563.513 2421.71 567.128C2423.72 570.643 2427.03 572.4 2431.65 572.4ZM2581.01 618.793V353.692H2653.91C2672.99 353.692 2687.35 359.014 2696.99 369.659C2706.63 380.202 2711.45 395.667 2711.45 416.051V540.167C2711.45 565.271 2707.03 584.651 2698.19 598.308C2689.46 611.965 2674.09 618.793 2652.1 618.793H2581.01ZM2634.33 571.948H2643.52C2653.26 571.948 2658.13 567.229 2658.13 557.79V421.022C2658.13 412.185 2656.92 406.512 2654.51 404.001C2652.2 401.39 2647.43 400.085 2640.2 400.085H2634.33V571.948ZM2721.28 618.793L2746.89 353.692H2836.81L2861.96 618.793H2811.81L2808.04 576.015H2776.11L2772.79 618.793H2721.28ZM2779.87 533.69H2803.97L2792.38 398.88H2789.97L2779.87 533.69Z" fill="white"></path><path d="M1784.18 1256.24C1738.13 1256.24 1702.88 1242.38 1678.43 1214.66C1654.21 1186.72 1642.09 1146.45 1642.09 1093.85V820.15C1642.09 770.822 1654.1 733.39 1678.1 707.854C1702.33 682.317 1737.69 669.549 1784.18 669.549C1830.67 669.549 1865.92 682.317 1889.93 707.854C1914.16 733.39 1926.27 770.822 1926.27 820.15V1093.85C1926.27 1146.45 1914.05 1186.72 1889.6 1214.66C1865.37 1242.38 1830.23 1256.24 1784.18 1256.24ZM1785.16 1150.16C1802.62 1150.16 1811.35 1133.25 1811.35 1099.42V818.185C1811.35 789.811 1802.84 775.624 1785.82 775.624C1766.61 775.624 1757.01 790.139 1757.01 819.168V1100.07C1757.01 1117.97 1759.19 1130.85 1763.55 1138.7C1767.92 1146.34 1775.12 1150.16 1785.16 1150.16ZM1962.7 1251V674.787H2118.87C2160.78 674.787 2191.22 685.045 2210.21 705.562C2229.42 725.86 2239.02 759.473 2239.02 806.399V831.609C2239.02 858.673 2234.11 880.608 2224.29 897.415C2214.69 914.221 2199.95 925.243 2180.09 930.481C2206.06 937.029 2223.42 952.417 2232.15 976.644C2241.1 1000.65 2245.57 1030.01 2245.57 1064.71C2245.57 1102.04 2242.08 1134.67 2235.09 1162.6C2228.11 1190.54 2215.45 1212.26 2197.12 1227.76C2178.78 1243.25 2152.7 1251 2118.87 1251H1962.7ZM2075.33 891.849H2098.9C2109.59 891.849 2116.47 887.702 2119.52 879.408C2122.58 871.114 2124.11 861.183 2124.11 849.615V791.666C2124.11 773.114 2115.92 763.838 2099.55 763.838H2075.33V891.849ZM2086.78 1149.51C2116.69 1149.51 2131.64 1135.32 2131.64 1106.95V1034.92C2131.64 1018.55 2129.13 1005.67 2124.11 996.288C2119.31 986.684 2110.14 981.882 2096.61 981.882H2075.33V1148.85C2080.13 1149.29 2083.95 1149.51 2086.78 1149.51ZM2273.49 1251V674.787H2450.28C2479.75 674.787 2502.01 681.553 2517.07 695.085C2532.13 708.399 2542.17 727.17 2547.19 751.397C2552.43 775.406 2555.05 803.671 2555.05 836.192C2555.05 867.622 2551.01 892.722 2542.94 911.493C2535.08 930.263 2520.13 943.25 2498.08 950.452C2516.2 954.163 2528.86 963.221 2536.06 977.626C2543.48 991.813 2547.19 1010.26 2547.19 1032.96V1251H2433.59V1025.43C2433.59 1008.62 2430.09 998.252 2423.11 994.323C2416.34 990.176 2405.32 988.103 2390.04 988.103V1251H2273.49ZM2390.7 888.248H2418.53C2434.46 888.248 2442.43 870.896 2442.43 836.192C2442.43 813.711 2440.68 798.978 2437.19 791.994C2433.69 785.009 2427.15 781.517 2417.54 781.517H2390.7V888.248ZM2567.25 1251L2622.91 674.787H2818.37L2873.04 1251H2764.02L2755.83 1158.02H2686.43L2679.22 1251H2567.25ZM2694.61 1066.02H2746.99L2721.78 773.005H2716.55L2694.61 1066.02Z" fill="black"></path><rect x="974.866" y="628.858" width="278.728" height="773.268" fill="#FDFDFD" stroke="black" stroke-width="6.58412"></rect><path d="M973.769 629.221L497.152 223.932L652.611 80.9102C930.826 338.572 1082.4 484.807 1368.45 739.322L1367.98 743.345H1300.78L1302.61 680.796L1244.22 629.221H973.769Z" fill="#D3D3D3" stroke="black" stroke-width="4.38941"></path><path d="M651.511 82.378L2.60938 677.509V616.789L659.558 3.73438L1371.01 667.267V740.79L1366.98 738.836L651.511 82.378Z" fill="#FBFBFB"></path><path d="M2.60938 677.509H0.0488853V683.331L4.34004 679.396L2.60938 677.509ZM651.511 82.378L653.242 80.4913L651.511 78.9034L649.78 80.4909L651.511 82.378ZM1371.01 667.267H1373.57V666.154L1372.75 665.394L1371.01 667.267ZM659.558 3.73438L661.304 1.86188L659.557 0.232647L657.811 1.86238L659.558 3.73438ZM2.60938 616.789L0.862455 614.917L0.0488853 615.676V616.789H2.60938ZM1366.98 738.836L1365.25 740.723L1365.53 740.976L1365.87 741.14L1366.98 738.836ZM1371.01 740.79L1369.89 743.093L1373.57 744.879V740.79H1371.01ZM4.34004 679.396L653.241 84.265L649.78 80.4909L0.878708 675.622L4.34004 679.396ZM1372.75 665.394L661.304 1.86188L657.811 5.60687L1369.26 669.139L1372.75 665.394ZM657.811 1.86238L0.862455 614.917L4.3563 618.661L661.305 5.60637L657.811 1.86238ZM0.0488853 616.789V677.509H5.16986V616.789H0.0488853ZM649.78 84.2647L1365.25 740.723L1368.72 736.95L653.242 80.4913L649.78 84.2647ZM1373.57 740.79V667.267H1368.45V740.79H1373.57ZM1365.87 741.14L1369.89 743.093L1372.13 738.486L1368.1 736.533L1365.87 741.14Z" fill="black"></path><path d="M1302.24 681.528L1253.23 636.902V1402.85L1300.05 1403.22L1302.24 681.528Z" fill="black" stroke="black" stroke-width="5.12098"></path><path d="M306.214 3L2.61328 283.556V616.786L659.927 3H306.214Z" fill="#D3D3D3" stroke="black" stroke-width="5.12098"></path><rect x="1365.89" y="738.957" width="7.68147" height="6.58412" fill="black"></rect></svg> 