<?xml version="1.0" encoding="UTF-8"?> <svg xmlns="http://www.w3.org/2000/svg" width="500" height="500" viewBox="0 0 500 500" fill="none"><g clip-path="url(#clip0_154_478)"><rect width="500" height="500" fill="#FE0000"></rect><rect x="354.547" y="228.825" width="103.31" height="270.629" fill="#FDFDFD" stroke="black" stroke-width="1.09487"></rect><path d="M354.95 229.616L180.539 81.3057L237.427 28.9688C339.235 123.257 394.701 176.77 499.377 269.906L499.204 271.378L474.614 271.378L475.283 248.489L453.916 229.616L354.95 229.616Z" fill="#D3D3D3" stroke="black" stroke-width="0.729911"></path><path d="M237.01 29.4974L-0.445334 247.278L-0.445332 225.058L239.955 0.718771L500.299 243.53L500.299 270.435L498.826 269.72L237.01 29.4974Z" fill="#FBFBFB"></path><path d="M-0.445334 247.278L-0.871116 247.278L-0.871116 248.246L-0.157542 247.592L-0.445334 247.278ZM237.01 29.4974L237.298 29.1837L237.01 28.9196L236.722 29.1836L237.01 29.4974ZM500.299 243.53L500.725 243.53L500.725 243.345L500.589 243.219L500.299 243.53ZM239.955 0.718771L240.245 0.407396L239.955 0.13647L239.664 0.407479L239.955 0.718771ZM-0.445332 225.058L-0.735827 224.747L-0.871114 224.873L-0.871114 225.058L-0.445332 225.058ZM498.826 269.72L498.539 270.034L498.584 270.076L498.64 270.103L498.826 269.72ZM500.299 270.435L500.113 270.818L500.725 271.115L500.725 270.435L500.299 270.435ZM-0.157542 247.592L237.298 29.8112L236.722 29.1836L-0.733126 246.964L-0.157542 247.592ZM500.589 243.219L240.245 0.407396L239.664 1.03015L500.008 243.841L500.589 243.219ZM239.664 0.407479L-0.735827 224.747L-0.154837 225.369L240.245 1.03006L239.664 0.407479ZM-0.871114 225.058L-0.871116 247.278L-0.0195526 247.278L-0.0195507 225.058L-0.871114 225.058ZM236.722 29.8111L498.539 270.034L499.114 269.406L237.298 29.1837L236.722 29.8111ZM500.725 270.435L500.725 243.53L499.873 243.53L499.873 270.435L500.725 270.435ZM498.64 270.103L500.113 270.818L500.485 270.052L499.012 269.337L498.64 270.103Z" fill="black"></path><path d="M475.003 247.883L457.066 232.293L457.066 499.873L474.2 500.001L475.003 247.883Z" fill="black" stroke="black" stroke-width="0.851563"></path><path d="M110.653 0.453135L-0.445321 103.119L-0.445332 225.06L240.089 0.453146L110.653 0.453135Z" fill="#D3D3D3" stroke="black" stroke-width="0.851563"></path><rect x="498.422" y="269.77" width="2.81091" height="2.40937" fill="black"></rect></g><defs><clipPath id="clip0_154_478"><rect width="500" height="500" fill="white"></rect></clipPath></defs></svg> 