<svg xmlns="http://www.w3.org/2000/svg" width="512.000000pt" height="512.000000pt" viewBox="0 0 512.000000 512.000000" preserveAspectRatio="xMidYMid meet"><g transform="translate(0.000000,512.000000) scale(0.100000,-0.100000)" fill="#000000" stroke="none"><path d="M4144 5106 c-120 -38 -214 -162 -214 -282 l0 -44 -600 0 c-587 0 -600 0 -620 -20 -30 -30 -27 -83 6 -109 26 -21 35 -21 620 -21 l594 0 0 -1204 0 -1205 115 -231 c93 -187 115 -239 115 -274 0 -58 29 -96 74 -96 48 0 76 34 76 93 0 40 17 82 115 277 l115 230 0 1205 0 1205 185 0 c172 0 186 -1 205 -20 20 -20 20 -33 20 -1625 0 -1576 0 -1605 -19 -1624 -11 -11 -35 -23 -53 -26 -18 -3 -1036 -4 -2263 -3 l-2230 3 -50 23 c-63 29 -119 83 -153 147 -22 42 -26 63 -26 130 0 93 25 154 91 217 75 73 112 82 344 88 202 5 206 5 246 32 22 15 51 44 64 65 l24 38 3 1278 2 1277 756 0 755 0 24 25 c32 31 33 74 2 103 l-23 22 -756 0 -756 0 -4 99 c-3 91 -5 103 -33 142 -16 23 -50 53 -74 66 -42 22 -54 23 -242 23 -165 0 -207 -3 -258 -19 -158 -49 -280 -185 -311 -346 -8 -44 -10 -487 -8 -1635 l3 -1575 22 -54 c53 -128 146 -223 271 -273 l57 -23 2265 -3 c2545 -3 2338 -9 2415 72 22 23 46 60 53 83 17 56 18 3243 1 3294 -18 51 -55 97 -102 122 -38 20 -59 22 -242 27 l-200 5 -7 63 c-21 190 -212 315 -394 258z m175 -163 c59 -44 71 -77 71 -189 l0 -104 -155 0 -155 0 0 94 c0 102 9 137 43 175 49 53 141 64 196 24z m-3557 0 c17 -15 18 -73 18 -1418 0 -1323 -1 -1403 -17 -1418 -15 -12 -54 -16 -213 -19 -215 -5 -261 -15 -349 -78 -22 -17 -43 -30 -46 -30 -3 0 -4 620 -3 1378 l3 1377 25 50 c32 66 99 129 163 154 45 17 77 20 226 20 149 1 177 -1 193 -16z m3628 -1523 l0 -1080 -155 0 -155 0 0 1080 0 1080 155 0 155 0 0 -1080z m-41 -1237 c0 -5 -26 -59 -57 -121 l-57 -112 -58 115 c-31 63 -57 117 -57 120 0 3 52 5 115 5 63 0 115 -3 114 -7z"></path><path d="M2544 4465 c-45 -20 -1051 -1034 -1060 -1068 -5 -21 -1 -36 13 -55 19 -26 24 -27 132 -30 l111 -3 0 -159 c0 -98 4 -169 11 -184 21 -45 100 -54 126 -14 4 7 10 90 13 183 l5 170 693 3 692 2 0 -470 0 -470 -194 0 -194 0 -4 253 c-3 251 -3 252 -30 302 -34 65 -80 110 -143 143 -74 38 -178 38 -257 -1 -32 -16 -75 -48 -97 -73 -67 -77 -73 -107 -79 -381 l-4 -243 -194 0 -194 0 0 153 c0 166 -6 189 -55 201 -29 7 -79 -15 -89 -39 -3 -9 -6 -106 -6 -214 0 -185 1 -200 21 -225 l20 -26 803 0 c677 0 805 2 822 14 18 14 19 34 24 543 l5 528 95 3 c108 3 140 20 140 76 0 27 -61 91 -522 553 -287 287 -534 527 -548 532 -18 6 -36 5 -56 -4z m446 -590 l415 -415 -830 0 -830 0 415 415 c228 228 415 415 415 415 0 0 187 -187 415 -415z m-310 -964 c54 -43 59 -70 59 -318 l1 -223 -150 0 -150 0 0 236 c0 225 1 238 22 272 45 73 148 89 218 33z"></path><path d="M1509 2071 c-24 -19 -24 -22 -24 -206 0 -184 0 -187 24 -206 30 -25 62 -24 95 2 22 18 26 28 26 75 l0 54 945 0 945 0 0 -50 c0 -41 5 -56 25 -75 13 -14 36 -25 50 -25 14 0 37 11 50 25 25 24 25 27 25 200 0 173 0 176 -25 200 -31 32 -69 32 -100 0 -20 -19 -25 -34 -25 -75 l0 -50 -945 0 -945 0 0 54 c0 47 -4 57 -26 75 -33 26 -65 27 -95 2z"></path><path d="M72 830 c-22 -21 -22 -23 -22 -405 l0 -384 26 -20 27 -21 2484 0 2484 0 24 25 25 24 0 376 0 376 -25 24 -24 25 -2489 0 -2488 0 -22 -20z m418 -255 c0 -160 15 -195 84 -195 12 0 32 9 44 20 21 19 22 30 22 160 l0 140 150 0 150 0 0 -60 c0 -51 4 -65 25 -85 30 -31 71 -32 102 -3 19 18 23 32 23 85 l0 63 150 0 150 0 0 -139 c0 -139 0 -140 26 -160 35 -28 69 -26 99 4 24 23 25 29 25 160 l0 135 150 0 150 0 0 -62 c0 -71 24 -108 71 -108 50 0 72 30 77 104 l4 66 144 0 144 0 0 -125 c0 -160 15 -195 84 -195 12 0 32 9 44 20 21 19 22 30 22 160 l0 140 150 0 150 0 0 -60 c0 -51 4 -65 25 -85 30 -31 71 -32 102 -3 19 18 23 32 23 85 l0 63 150 0 150 0 0 -139 c0 -139 0 -140 26 -160 35 -28 69 -26 99 4 24 23 25 29 25 160 l0 135 150 0 150 0 0 -62 c0 -71 24 -108 71 -108 50 0 72 30 77 104 l4 66 144 0 144 0 0 -125 c0 -160 15 -195 84 -195 12 0 32 9 44 20 21 19 22 30 22 160 l0 140 150 0 150 0 0 -60 c0 -51 4 -65 25 -85 30 -31 71 -32 102 -3 19 18 23 32 23 85 l0 63 150 0 150 0 0 -275 0 -275 -2385 0 -2385 0 0 275 0 275 145 0 145 0 0 -125z"></path></g></svg>