<svg xmlns="http://www.w3.org/2000/svg" width="512.000000pt" height="512.000000pt" viewBox="0 0 512.000000 512.000000" preserveAspectRatio="xMidYMid meet"><g transform="translate(0.000000,512.000000) scale(0.100000,-0.100000)" fill="#000000" stroke="none"><path d="M712 5109 c-175 -29 -320 -107 -457 -244 -141 -141 -215 -281 -244 -465 -15 -90 -15 -3590 0 -3680 29 -184 103 -324 244 -465 142 -142 285 -216 471 -245 47 -7 716 -10 2139 -8 l2070 3 40 22 c47 25 95 74 121 123 18 34 19 100 22 1795 2 1938 7 1809 -59 1888 -17 21 -54 50 -83 65 l-51 27 -756 3 -757 3 -4 92 c-3 73 -9 101 -25 130 -24 40 -429 518 -472 555 -62 56 -91 62 -301 62 -175 0 -200 -3 -240 -21 -55 -25 -95 -62 -123 -114 -21 -38 -22 -54 -25 -377 l-3 -338 -253 0 -254 0 -5 238 c-4 199 -8 250 -26 317 -70 261 -249 469 -499 579 -128 56 -324 79 -470 55z m276 -174 c46 -9 115 -34 172 -62 76 -37 109 -60 170 -122 118 -120 179 -242 200 -406 5 -40 9 -701 9 -1525 l1 -1455 -45 51 c-96 110 -260 212 -412 256 -104 30 -342 33 -443 4 -152 -42 -285 -121 -397 -235 l-73 -74 2 1514 3 1514 29 84 c116 331 445 523 784 456z m1784 -336 c20 -10 189 -201 395 -447 l73 -87 0 -1562 0 -1563 -85 0 -85 0 0 198 c0 185 -2 200 -24 247 -43 94 -129 148 -231 148 -99 -1 -171 -43 -223 -132 -27 -46 -27 -48 -30 -253 l-3 -208 -85 0 -84 0 0 340 0 340 174 0 c96 0 186 4 201 10 34 13 59 69 46 104 -20 51 -40 56 -238 56 l-183 0 0 85 0 85 175 0 c196 0 225 7 243 60 13 35 8 56 -21 88 -20 21 -26 22 -209 22 l-188 0 0 85 0 85 169 0 c99 0 181 5 201 11 39 14 65 65 51 102 -21 56 -27 57 -232 57 l-189 0 0 90 0 90 188 0 c183 0 189 1 209 23 30 33 34 54 19 91 -20 49 -53 56 -247 56 l-169 0 0 85 0 85 188 0 c183 0 189 1 209 23 29 31 34 52 21 87 -18 53 -47 60 -243 60 l-175 0 0 85 0 85 183 0 c198 0 218 5 238 56 13 35 -12 91 -46 104 -15 6 -105 10 -201 10 l-174 0 0 85 0 85 184 0 c180 0 186 1 212 24 38 32 38 90 -1 123 -25 22 -33 23 -211 23 l-184 0 0 85 0 85 181 0 c110 0 188 4 201 11 29 15 50 72 39 103 -20 51 -40 56 -238 56 l-183 0 0 186 0 186 29 29 29 29 151 0 c87 0 160 -5 173 -11z m-552 -2254 l0 -1405 -99 0 c-89 0 -103 -2 -125 -23 -40 -34 -43 -77 -11 -115 l27 -32 1314 0 1315 0 24 25 c25 24 32 65 19 100 -12 31 -59 45 -153 45 l-90 0 -3 843 c-3 800 -4 844 -22 877 -34 64 -63 95 -117 125 l-54 30 -380 0 c-209 0 -397 -3 -417 -7 l-38 -7 0 475 0 474 744 0 c717 0 745 -1 767 -19 l24 -19 3 -1742 2 -1741 -29 -30 -30 -29 -2083 2 -2083 3 -84 29 c-205 72 -369 236 -434 435 -81 244 -18 513 162 691 42 41 102 90 134 109 270 159 612 116 832 -104 114 -114 175 -245 197 -422 9 -78 16 -102 34 -120 30 -30 75 -30 111 1 l28 24 3 1466 2 1466 255 0 255 0 0 -1405z m1982 294 c71 -19 68 26 68 -884 l0 -815 -84 0 -84 0 -4 198 c-3 198 -3 199 -33 258 -94 184 -356 184 -450 0 -30 -59 -30 -60 -33 -258 l-4 -198 -84 0 -84 0 0 815 c0 902 -3 865 63 884 45 13 683 14 729 0z m-1322 -1307 c18 -23 20 -41 20 -208 l0 -184 -85 0 -85 0 0 181 c0 110 4 188 11 200 13 26 63 47 95 41 13 -2 33 -16 44 -30z m1021 2 c23 -25 24 -31 27 -210 l4 -184 -92 0 -92 0 4 184 c3 179 4 185 27 210 18 19 35 26 61 26 26 0 43 -7 61 -26z"></path><path d="M379 4507 c-31 -24 -39 -56 -39 -162 0 -104 1 -107 29 -136 31 -31 59 -36 94 -17 42 22 46 38 47 161 0 112 -1 119 -25 142 -27 27 -79 33 -106 12z"></path><path d="M369 3981 l-29 -29 0 -1002 c0 -742 3 -1007 12 -1023 28 -53 92 -64 133 -22 l25 24 0 1016 0 1016 -25 24 c-34 35 -78 33 -116 -4z"></path><path d="M1911 574 c-40 -33 -43 -83 -6 -119 l24 -25 376 0 376 0 24 25 c32 31 32 75 1 112 l-24 28 -370 3 -370 3 -31 -27z"></path><path d="M2950 587 c-54 -27 -63 -94 -20 -137 20 -20 37 -20 910 -20 873 0 890 0 910 20 43 43 34 110 -20 137 -36 18 -1744 18 -1780 0z"></path><path d="M3525 2445 c-32 -31 -32 -75 -1 -112 23 -26 29 -28 99 -28 66 0 79 3 101 24 34 32 36 88 3 119 -20 19 -35 22 -101 22 -68 0 -80 -3 -101 -25z"></path><path d="M3952 2447 c-31 -33 -29 -87 4 -118 22 -21 35 -24 101 -24 70 0 76 2 99 28 31 37 31 81 -1 112 -21 22 -33 25 -103 25 -69 0 -81 -3 -100 -23z"></path><path d="M3525 2105 c-32 -31 -32 -75 -2 -111 19 -22 34 -28 80 -32 101 -8 147 19 147 86 0 63 -29 82 -124 82 -68 0 -80 -3 -101 -25z"></path><path d="M3952 2107 c-29 -30 -30 -89 -2 -117 26 -26 59 -33 127 -28 46 4 61 10 80 32 30 36 30 80 -2 111 -21 22 -33 25 -103 25 -69 0 -81 -3 -100 -23z"></path><path d="M3525 1765 c-35 -34 -33 -78 4 -116 26 -26 36 -29 91 -29 64 0 113 18 124 45 15 39 6 83 -20 104 -22 17 -41 21 -101 21 -65 0 -77 -3 -98 -25z"></path><path d="M3956 1769 c-32 -25 -36 -84 -7 -120 16 -20 30 -24 95 -27 73 -4 76 -3 106 26 38 39 40 83 5 117 -21 22 -33 25 -98 25 -60 0 -79 -4 -101 -21z"></path></g></svg>