<svg xmlns="http://www.w3.org/2000/svg" width="512.000000pt" height="512.000000pt" viewBox="0 0 512.000000 512.000000" preserveAspectRatio="xMidYMid meet"><g transform="translate(0.000000,512.000000) scale(0.100000,-0.100000)" fill="#000000" stroke="none"><path d="M4486 5104 c-134 -32 -272 -142 -330 -260 l-29 -60 -866 -280 c-476 -153 -896 -293 -933 -311 -193 -92 -341 -237 -436 -428 -74 -148 -102 -286 -102 -498 l0 -122 -36 -20 c-20 -11 -51 -37 -70 -59 -59 -69 -64 -102 -64 -453 l0 -313 -672 0 c-658 0 -673 0 -714 -21 -49 -23 -110 -86 -130 -135 -11 -27 -14 -119 -14 -481 0 -499 -1 -491 71 -562 66 -67 101 -75 322 -79 l197 -4 0 -84 0 -84 -165 0 c-140 0 -174 -3 -222 -20 -249 -87 -362 -361 -246 -594 33 -65 111 -146 174 -181 106 -57 41 -55 1484 -55 1454 0 1393 -2 1495 57 69 41 134 112 171 189 32 66 34 74 34 180 0 107 -1 112 -37 185 -46 93 -112 158 -206 202 -67 32 -68 32 -249 35 l-183 4 0 83 0 83 158 4 c185 5 220 16 285 88 60 67 67 98 67 306 0 152 -3 185 -19 219 -26 58 -65 101 -114 124 l-43 21 -73 588 c-81 645 -82 653 -156 721 -40 37 -120 71 -167 71 -17 0 -18 12 -18 171 0 188 8 222 60 259 15 10 294 132 621 271 949 402 913 387 927 376 9 -7 12 -239 12 -1097 l0 -1088 -32 -7 c-50 -10 -103 -49 -121 -88 -15 -30 -17 -76 -17 -325 l0 -290 -52 -18 c-135 -44 -190 -99 -205 -209 -14 -107 60 -218 166 -249 64 -19 317 -22 420 -5 136 22 244 76 339 170 206 204 238 520 76 756 l-35 51 72 1193 72 1192 43 54 c89 109 130 231 121 363 -12 182 -121 346 -281 424 -117 57 -229 69 -350 40z m257 -183 c65 -28 141 -102 174 -170 37 -76 39 -200 5 -275 -34 -75 -84 -129 -154 -166 -53 -28 -76 -34 -143 -38 -110 -5 -179 21 -256 97 -220 220 -53 597 256 577 39 -2 91 -13 118 -25z m-639 -386 c3 -30 13 -73 22 -96 10 -23 13 -44 8 -49 -5 -4 -335 -146 -734 -315 -399 -168 -744 -317 -767 -331 -54 -31 -109 -99 -135 -166 -18 -45 -22 -82 -26 -235 l-4 -183 -256 0 -255 0 6 153 c6 179 26 269 87 386 76 145 195 264 335 333 52 26 1671 556 1701 557 6 1 14 -24 18 -54z m501 -430 c55 0 115 4 133 8 l32 9 0 -49 c0 -26 -27 -493 -60 -1038 -33 -544 -60 -1007 -60 -1027 l0 -37 -52 23 c-29 13 -77 29 -105 36 l-53 12 0 1040 0 1040 33 -9 c17 -4 77 -8 132 -8z m-2555 -1482 c1 -396 3 -410 54 -478 15 -19 48 -47 74 -62 l47 -28 316 -3 317 -3 11 -97 c7 -53 15 -112 18 -129 l5 -33 -404 0 c-399 0 -404 0 -448 23 -43 21 -49 30 -147 222 l-102 200 0 340 c-1 364 1 378 49 402 15 7 63 13 118 13 l92 0 0 -367z m644 357 c14 -5 32 -19 40 -32 9 -15 30 -149 58 -375 l44 -353 -283 0 -284 0 -24 25 -25 24 0 361 0 360 224 0 c124 0 236 -4 250 -10z m-941 -1044 c104 -209 129 -240 226 -288 46 -23 49 -23 549 -28 l504 -5 19 -24 c17 -21 19 -41 19 -182 0 -153 -1 -159 -24 -186 l-24 -28 -1355 0 -1355 0 -26 24 -26 24 0 423 0 423 26 20 c26 21 34 21 698 21 l671 0 98 -194z m2679 -67 c84 -18 158 -58 219 -118 98 -99 144 -237 121 -364 -35 -185 -180 -328 -362 -357 -83 -13 -321 -13 -354 0 -15 5 -31 21 -38 35 -19 41 2 70 64 90 132 43 158 56 173 85 12 24 15 84 15 335 l0 305 55 0 c29 0 78 -5 107 -11z m-1872 -934 l0 -85 -852 2 -853 3 -3 83 -3 82 856 0 855 0 0 -85z m535 -279 c88 -41 145 -129 144 -226 0 -102 -44 -177 -131 -226 l-53 -29 -1350 0 -1350 0 -40 22 c-47 25 -96 75 -119 120 -66 132 11 311 152 353 15 5 628 9 1362 9 l1335 1 50 -24z"></path><path d="M549 1947 c-33 -25 -39 -55 -39 -197 0 -181 12 -210 91 -210 18 0 39 10 54 25 24 24 25 27 25 185 0 158 -1 161 -25 185 -27 27 -79 33 -106 12z"></path><path d="M879 1934 c-23 -25 -24 -30 -24 -184 0 -154 1 -159 24 -184 32 -34 88 -36 119 -3 21 22 22 33 22 186 0 159 -1 162 -25 186 -33 34 -83 34 -116 -1z"></path><path d="M1223 1936 l-28 -24 0 -160 c0 -156 1 -161 24 -186 18 -19 35 -26 61 -26 26 0 43 7 61 26 23 25 24 30 24 186 l0 160 -28 24 c-16 13 -41 24 -57 24 -16 0 -41 -11 -57 -24z"></path><path d="M535 478 c-32 -38 -29 -81 11 -115 23 -21 35 -23 130 -23 109 0 155 13 168 45 13 35 6 76 -19 100 -23 24 -30 25 -144 25 l-119 0 -27 -32z"></path><path d="M1228 490 c-14 -11 -28 -31 -30 -44 -7 -36 17 -85 47 -96 34 -13 206 -13 240 0 34 13 59 69 46 104 -18 47 -46 56 -167 56 -96 0 -115 -3 -136 -20z"></path><path d="M1905 485 c-17 -16 -25 -35 -25 -57 1 -70 38 -88 175 -88 104 0 107 1 136 29 31 31 36 59 17 94 -22 42 -38 46 -161 47 -112 0 -119 -1 -142 -25z"></path><path d="M2602 503 c-17 -6 -42 -57 -42 -83 0 -12 13 -35 29 -51 29 -29 31 -29 141 -29 110 0 112 0 141 29 37 38 39 82 4 116 -23 24 -30 25 -142 24 -65 0 -124 -3 -131 -6z"></path></g></svg>